<?xml version="1.0" standalone="no"?>
<!DOCTYPE svg PUBLIC "-//W3C//DTD SVG 20010904//EN"
 "http://www.w3.org/TR/2001/REC-SVG-20010904/DTD/svg10.dtd">
<svg version="1.0" xmlns="http://www.w3.org/2000/svg"
 width="470.000000pt" height="297.000000pt" viewBox="0 0 470.000000 297.000000"
 preserveAspectRatio="xMidYMid meet">

<g transform="translate(0.000000,297.000000) scale(0.100000,-0.100000)"
fill="#000000" stroke="none">
<path d="M1620 1955 l0 -835 130 0 c144 0 177 9 198 55 9 19 12 217 12 781 0
820 2 796 -55 822 -16 7 -76 12 -155 12 l-130 0 0 -835z"/>
<path d="M2147 2772 c-15 -17 -17 -67 -17 -510 l0 -492 32 -123 c17 -67 34
-125 38 -130 3 -4 21 49 38 117 l32 124 0 506 c0 489 -1 506 -19 516 -31 16
-86 12 -104 -8z"/>
<path d="M2825 2765 c-24 -23 -25 -30 -25 -140 0 -108 1 -115 20 -115 17 0 20
-7 20 -45 0 -42 -2 -46 -37 -60 -113 -47 -156 -175 -92 -271 l25 -37 -133
-306 c-110 -255 -138 -328 -164 -440 -26 -111 -29 -135 -18 -142 8 -5 17 -9
22 -9 10 0 155 223 178 275 12 26 16 52 13 76 -8 47 17 105 54 126 23 13 42
49 102 187 40 94 76 174 79 178 3 4 57 -112 120 -256 l113 -264 62 25 c33 14
63 27 65 29 2 1 -47 120 -109 262 l-111 259 25 38 c20 29 26 50 26 93 0 78
-33 133 -100 164 -49 23 -49 23 -50 71 0 35 4 47 15 47 12 0 15 20 15 118 0
64 -4 122 -8 128 -10 15 -47 34 -67 34 -9 0 -27 -11 -40 -25z"/>
<path d="M3205 1463 c-33 -14 -61 -26 -63 -27 -1 -2 16 -45 39 -97 41 -95 75
-139 108 -139 28 0 71 39 71 64 0 22 -74 203 -89 217 -3 3 -33 -5 -66 -18z"/>
<path d="M270 341 l0 -241 63 0 c98 0 97 -3 97 236 0 154 -3 204 -14 219 -10
14 -30 20 -80 23 l-66 4 0 -241z m108 0 c3 -192 1 -200 -40 -201 -17 0 -18 16
-18 196 l0 195 28 -3 27 -3 3 -184z"/>
<path d="M610 341 l0 -241 25 0 25 0 -2 238 -3 237 -22 3 -23 3 0 -240z"/>
<path d="M862 564 c-22 -15 -22 -19 -22 -222 0 -114 4 -212 8 -219 4 -6 20
-17 36 -23 34 -13 91 2 100 26 3 9 6 63 6 120 l0 104 -41 0 -41 0 16 -25 c11
-17 16 -48 16 -105 0 -79 0 -80 -25 -80 l-25 0 2 198 c3 189 4 197 23 197 16
0 21 -8 23 -42 3 -47 4 -48 33 -33 14 8 19 21 19 50 0 45 -26 70 -75 70 -17 0
-41 -7 -53 -16z"/>
<path d="M1170 341 l0 -241 25 0 25 0 -2 238 -3 237 -22 3 -23 3 0 -240z"/>
<path d="M1297 573 c-4 -3 -7 -15 -7 -25 0 -14 8 -18 35 -18 l35 0 0 -215 0
-215 25 0 25 0 2 213 3 212 30 3 c34 4 55 18 55 38 0 11 -21 14 -98 14 -54 0
-102 -3 -105 -7z"/>
<path d="M1681 378 c-18 -112 -35 -220 -38 -240 -5 -36 -4 -38 20 -38 22 0 27
6 31 33 9 49 36 256 36 269 0 58 48 -223 50 -289 0 -7 12 -13 28 -13 l29 0
-34 217 c-19 120 -38 228 -43 241 -5 12 -18 22 -28 22 -17 0 -23 -22 -51 -202z"/>
<path d="M2030 341 l0 -241 68 0 c67 0 92 10 92 37 0 9 -17 13 -55 13 l-55 0
-2 213 c-3 211 -3 212 -25 215 l-23 3 0 -240z"/>
<path d="M2550 340 l0 -240 25 0 25 0 0 103 0 103 44 12 c53 14 66 42 66 144
0 60 -3 72 -25 93 -20 21 -34 25 -80 25 l-55 0 0 -240z m108 117 c3 -73 -7
-97 -39 -97 -17 0 -19 9 -19 86 l0 85 28 -3 c26 -3 27 -5 30 -71z"/>
<path d="M2870 340 l0 -240 25 0 25 0 0 100 0 100 25 0 25 0 0 -100 c0 -100 0
-100 25 -100 l24 0 0 225 c0 219 0 225 -22 240 -13 9 -43 15 -74 15 l-53 0 0
-240z m95 100 c0 -81 -1 -85 -22 -88 -22 -3 -23 -1 -23 88 0 89 1 91 23 88 21
-3 22 -7 22 -88z"/>
<path d="M3222 564 c-22 -15 -22 -19 -22 -222 0 -114 4 -212 8 -219 12 -19 64
-35 92 -28 59 15 60 20 60 242 0 190 -1 204 -20 223 -24 24 -86 27 -118 4z
m83 -224 l0 -195 -25 0 -25 0 -3 185 c-1 101 0 190 3 198 3 7 15 12 27 10 23
-3 23 -3 23 -198z"/>
<path d="M3618 363 c-3 -218 -3 -218 -25 -221 -20 -3 -23 1 -23 27 0 32 -6 36
-34 25 -21 -8 -21 -67 -1 -84 24 -20 90 -17 114 4 21 19 21 27 19 240 -3 220
-3 221 -25 224 l-23 3 -2 -218z"/>
<path d="M3787 573 c-4 -3 -7 -111 -7 -240 l0 -233 70 0 c58 0 71 3 80 19 15
30 14 31 -45 31 l-56 0 3 88 c3 84 4 87 28 90 59 9 66 42 10 42 l-41 0 3 78 3
77 35 3 c32 3 60 23 60 44 0 10 -134 11 -143 1z"/>
<path d="M4120 553 c-20 -26 -21 -36 -18 -225 3 -223 6 -230 76 -232 64 -1 82
22 82 105 l0 69 -25 -12 c-20 -9 -25 -19 -27 -62 -3 -47 -5 -51 -28 -51 l-25
0 -3 186 c-2 157 0 188 13 199 26 22 45 -5 45 -66 0 -58 1 -59 31 -44 28 15
27 112 -1 140 -31 31 -93 27 -120 -7z"/>
<path d="M4337 573 c-4 -3 -7 -15 -7 -25 0 -14 8 -18 35 -18 l35 0 0 -215 0
-215 25 0 25 0 2 213 3 212 36 3 c27 2 39 9 47 28 l12 24 -104 0 c-56 0 -106
-3 -109 -7z"/>
</g>
</svg>
